<?xml version="1.0" encoding="iso-8859-1"?>
<!-- Generator: Adobe Illustrator 19.0.0, SVG Export Plug-In . SVG Version: 6.00 Build 0)  -->
<svg version="1.1" id="Layer_1" xmlns="http://www.w3.org/2000/svg" xmlns:xlink="http://www.w3.org/1999/xlink" x="0px" y="0px"
	 viewBox="0 0 512 512" style="enable-background:new 0 0 512 512;" xml:space="preserve">
<g>
	<g>
		<path d="M503.291,296.778l-30.223-128.499c-3.063-13.028-15.936-23.286-29.31-23.286H376.48V85.361
			c0-4.718-4.811-8.647-9.525-8.647H307.21c-4.713,0-7.545,3.93-7.545,8.647v59.633H68.242c-13.369,0-26.243,10.258-29.31,23.278
			L8.709,296.749c-0.596,2.542,0,5.176,1.621,7.218c1.617,2.042,4.08,3.192,6.689,3.192h13.155
			c-2.919,4.268-4.62,10.904-4.62,17.126c0,12.4,6.668,23.271,16.585,29.252c-5.012,5.945-8.05,13.625-8.05,22
			c0,10.2,4.512,19.352,11.616,25.611c-7.104,6.262-11.616,15.407-11.616,25.609c0,10.202,4.512,19.346,11.616,25.607
			c-7.104,6.26-11.616,15.349-11.616,25.549c0,18.829,15.295,34.086,34.09,34.086h145.145h93.885h145.146
			c18.795,0,34.09-15.255,34.09-34.084c0-10.202-4.513-19.316-11.617-25.578c7.104-6.26,11.617-15.391,11.617-25.591
			c0-10.202-4.513-19.337-11.617-25.599c7.104-6.26,11.617-15.399,11.617-25.601c0-10.206-4.518-19.352-11.626-25.613
			c7.11-6.26,11.626-15.453,11.626-25.651c0-6.222-1.7-12.857-4.62-17.124h13.155c2.609,0,5.072-1.136,6.689-3.178
			C503.291,301.939,503.887,299.32,503.291,296.778z M316.735,93.783h42.675v51.21h-42.675V93.783z M205.78,494.93h-137.6
			c-9.385,0-17.02-7.66-17.02-17.07c0-9.41,7.635-17.07,17.02-17.07h137.6V494.93z M205.78,443.72h-137.6
			c-9.385,0-17.02-7.66-17.02-17.07s7.635-17.07,17.02-17.07h137.6V443.72z M205.78,392.51h-137.6c-9.385,0-17.02-7.66-17.02-17.07
			s7.635-17.07,17.02-17.07h137.6V392.51z M299.665,401.157v51.21v42.563H222.85v-42.563v-51.21v-42.788h76.815V401.157z
			 M452.356,494.93H316.735v-34.14h135.621c9.385,0,17.02,7.66,17.02,17.07S461.741,494.93,452.356,494.93z M452.356,443.72H316.735
			v-34.14h135.621c9.385,0,17.02,7.66,17.02,17.07S461.741,443.72,452.356,443.72z M452.356,392.51H316.735v-34.14h135.558h0.063
			c9.385,0,17.02,7.66,17.02,17.07S461.741,392.51,452.356,392.51z M452.293,341.299H307.21h-93.885H68.179h-8.473
			c-9.419,0-17.083-7.66-17.083-17.07c0-9.41,7.664-17.07,17.083-17.07h392.587c9.418,0,17.082,7.66,17.082,17.07
			C469.376,333.64,461.712,341.299,452.293,341.299z M452.293,290.089H59.707H27.796l27.755-117.957
			c1.259-5.368,7.189-10.069,12.69-10.069H307.21h59.745h76.803c5.501,0,11.431,4.701,12.69,10.069l27.756,117.957H452.293z"/>
	</g>
</g>
<g>
	<g>
		<path d="M414.194,1.334c-3.972-2.534-9.26-1.35-11.773,2.642c-0.063,0.1-6.376,9.544-20.625,13.403
			c-2.892,0.792-10.481,0.333-15.495,0.033c-3.001-0.175-5.759-0.331-7.881-0.331c-27.005,0-34.14,27.866-34.14,42.627
			c0,4.701,3.805,8.47,8.51,8.47c0.008,0,0.017,0,0.025,0c4.693,0,8.506-3.753,8.535-8.445c0.008-1.042,0.354-25.607,17.07-25.607
			c1.846,0,4.255,0.163,6.872,0.321c7.214,0.417,15.382,0.915,20.958-0.594c20.825-5.634,30.202-20.135,30.589-20.744
			C419.362,9.125,418.178,3.851,414.194,1.334z"/>
	</g>
</g>
<g>
	<g>
		<path d="M239.92,418.227c-4.713,0-8.535,3.818-8.535,8.535v8.535c0,4.718,3.822,8.535,8.535,8.535
			c4.714,0,8.535-3.817,8.535-8.535v-8.535C248.455,422.045,244.633,418.227,239.92,418.227z"/>
	</g>
</g>
<g>
</g>
<g>
</g>
<g>
</g>
<g>
</g>
<g>
</g>
<g>
</g>
<g>
</g>
<g>
</g>
<g>
</g>
<g>
</g>
<g>
</g>
<g>
</g>
<g>
</g>
<g>
</g>
<g>
</g>
</svg>
